<?xml version="1.0" encoding="UTF-8" standalone="no"?>
<!-- Created with Inkscape (http://www.inkscape.org/) -->

<svg
   xmlns:dc="http://purl.org/dc/elements/1.1/"
   xmlns:cc="http://creativecommons.org/ns#"
   xmlns:rdf="http://www.w3.org/1999/02/22-rdf-syntax-ns#"
   xmlns:svg="http://www.w3.org/2000/svg"
   xmlns="http://www.w3.org/2000/svg"
   xmlns:xlink="http://www.w3.org/1999/xlink"
   xmlns:sodipodi="http://sodipodi.sourceforge.net/DTD/sodipodi-0.dtd"
   xmlns:inkscape="http://www.inkscape.org/namespaces/inkscape"
   width="300"
   height="300"
   id="svg3872"
   version="1.1"
   inkscape:version="0.48.0 r9654"
   sodipodi:docname="ebook.svg"
   inkscape:export-filename="/home/osmank3/Geliştirme/bilge-katalog-python/images/ebook.png"
   inkscape:export-xdpi="38.400002"
   inkscape:export-ydpi="38.400002">
  <title
     id="title3033">E-Book</title>
  <defs
     id="defs3874">
    <linearGradient
       inkscape:collect="always"
       id="linearGradient4679">
      <stop
         style="stop-color:#ffffff;stop-opacity:1;"
         offset="0"
         id="stop4681" />
      <stop
         style="stop-color:#ffffff;stop-opacity:0;"
         offset="1"
         id="stop4683" />
    </linearGradient>
    <linearGradient
       inkscape:collect="always"
       id="linearGradient4580">
      <stop
         style="stop-color:#ffffff;stop-opacity:1;"
         offset="0"
         id="stop4582" />
      <stop
         style="stop-color:#ffffff;stop-opacity:0;"
         offset="1"
         id="stop4584" />
    </linearGradient>
    <linearGradient
       inkscape:collect="always"
       xlink:href="#linearGradient4580"
       id="linearGradient4608"
       gradientUnits="userSpaceOnUse"
       x1="231.36742"
       y1="5.3007884"
       x2="231.36742"
       y2="96.624985" />
    <linearGradient
       inkscape:collect="always"
       xlink:href="#linearGradient4679"
       id="linearGradient4692"
       gradientUnits="userSpaceOnUse"
       x1="131.05023"
       y1="754.18848"
       x2="129.68036"
       y2="903.96014" />
    <linearGradient
       inkscape:collect="always"
       xlink:href="#linearGradient4679"
       id="linearGradient4722"
       gradientUnits="userSpaceOnUse"
       x1="131.05023"
       y1="754.18848"
       x2="129.68036"
       y2="903.96014" />
    <linearGradient
       inkscape:collect="always"
       xlink:href="#linearGradient4580"
       id="linearGradient4724"
       gradientUnits="userSpaceOnUse"
       x1="231.36742"
       y1="5.3007884"
       x2="231.36742"
       y2="96.624985" />
    <linearGradient
       inkscape:collect="always"
       xlink:href="#linearGradient4679"
       id="linearGradient4733"
       gradientUnits="userSpaceOnUse"
       x1="131.05023"
       y1="754.18848"
       x2="129.68036"
       y2="903.96014" />
    <linearGradient
       inkscape:collect="always"
       xlink:href="#linearGradient4679"
       id="linearGradient3233"
       gradientUnits="userSpaceOnUse"
       x1="131.05023"
       y1="754.18848"
       x2="129.68036"
       y2="903.96014"
       gradientTransform="matrix(1.2031273,0,0,1.2031273,-22.945304,-180.31337)" />
    <linearGradient
       y2="903.96014"
       x2="129.68036"
       y1="754.18848"
       x1="131.05023"
       gradientUnits="userSpaceOnUse"
       id="linearGradient4692-7"
       xlink:href="#linearGradient4679-9"
       inkscape:collect="always" />
    <linearGradient
       y2="96.624985"
       x2="231.36742"
       y1="5.3007884"
       x1="231.36742"
       gradientUnits="userSpaceOnUse"
       id="linearGradient4608-5"
       xlink:href="#linearGradient4580-1"
       inkscape:collect="always" />
    <linearGradient
       id="linearGradient4580-1"
       inkscape:collect="always">
      <stop
         id="stop4582-7"
         offset="0"
         style="stop-color:#ffffff;stop-opacity:1;" />
      <stop
         id="stop4584-8"
         offset="1"
         style="stop-color:#ffffff;stop-opacity:0;" />
    </linearGradient>
    <linearGradient
       id="linearGradient4679-9"
       inkscape:collect="always">
      <stop
         id="stop4681-6"
         offset="0"
         style="stop-color:#ffffff;stop-opacity:1;" />
      <stop
         id="stop4683-2"
         offset="1"
         style="stop-color:#ffffff;stop-opacity:0;" />
    </linearGradient>
    <inkscape:path-effect
       is_visible="true"
       id="path-effect4441"
       effect="spiro" />
    <linearGradient
       inkscape:collect="always"
       xlink:href="#linearGradient4679"
       id="linearGradient3098"
       gradientUnits="userSpaceOnUse"
       gradientTransform="matrix(1.2031273,0,0,1.2031273,-22.945304,-180.31337)"
       x1="131.05023"
       y1="754.18848"
       x2="129.68036"
       y2="903.96014" />
  </defs>
  <sodipodi:namedview
     id="base"
     pagecolor="#ffffff"
     bordercolor="#666666"
     borderopacity="1.0"
     inkscape:pageopacity="0.0"
     inkscape:pageshadow="2"
     inkscape:zoom="2.19"
     inkscape:cx="63.830841"
     inkscape:cy="150"
     inkscape:document-units="px"
     inkscape:current-layer="layer1"
     showgrid="false"
     width="300px"
     borderlayer="false"
     inkscape:window-width="1280"
     inkscape:window-height="885"
     inkscape:window-x="0"
     inkscape:window-y="24"
     inkscape:window-maximized="1" />
  <metadata
     id="metadata3877">
    <rdf:RDF>
      <cc:Work
         rdf:about="">
        <dc:format>image/svg+xml</dc:format>
        <dc:type
           rdf:resource="http://purl.org/dc/dcmitype/StillImage" />
        <dc:title>E-Book</dc:title>
        <dc:date>2010-10-06</dc:date>
        <dc:creator>
          <cc:Agent>
            <dc:title>Osman Karagöz</dc:title>
          </cc:Agent>
        </dc:creator>
        <cc:license
           rdf:resource="http://creativecommons.org/licenses/by-nc-sa/3.0/" />
      </cc:Work>
      <cc:License
         rdf:about="http://creativecommons.org/licenses/by-nc-sa/3.0/">
        <cc:permits
           rdf:resource="http://creativecommons.org/ns#Reproduction" />
        <cc:permits
           rdf:resource="http://creativecommons.org/ns#Distribution" />
        <cc:requires
           rdf:resource="http://creativecommons.org/ns#Notice" />
        <cc:requires
           rdf:resource="http://creativecommons.org/ns#Attribution" />
        <cc:prohibits
           rdf:resource="http://creativecommons.org/ns#CommercialUse" />
        <cc:permits
           rdf:resource="http://creativecommons.org/ns#DerivativeWorks" />
        <cc:requires
           rdf:resource="http://creativecommons.org/ns#ShareAlike" />
      </cc:License>
    </rdf:RDF>
  </metadata>
  <g
     inkscape:label="Layer 1"
     inkscape:groupmode="layer"
     id="layer1"
     transform="translate(0,-752.362)">
    <g
       id="g3068"
       transform="translate(-20,0)">
      <g
         id="g3237">
        <g
           id="g4529"
           transform="matrix(1.2031273,0,0,1.2031273,-25.351559,-151.43831)"
           style="fill:#d45500">
          <path
             sodipodi:nodetypes="cccccccccccc"
             inkscape:connector-curvature="0"
             id="rect3882"
             d="m 190.85546,776.3195 14.0085,13.37898 c 7.38531,8.85035 8.8937,8.52692 7.68918,19.33492 l -0.017,73.69606 0,92.95271 c -0.12097,7.1115 -0.38352,6.6395 -8.73797,6.6395 l -122.331539,0 c -9.19497,-0.3362 -8.43661,-0.2073 -8.73797,-6.6395 0,-66.3948 0,-132.78958 0,-199.18437 0.42234,-6.81013 0.0822,-6.94083 8.73797,-6.63948 l 89.418299,0 c 13.01223,-0.13217 12.95991,0.24214 19.97053,6.46118 z"
             style="fill:#d45500;fill-opacity:1;fill-rule:evenodd;stroke:#ffffff;stroke-width:1;stroke-linejoin:miter;stroke-miterlimit:4;stroke-opacity:1;stroke-dasharray:none;stroke-dashoffset:0" />
        </g>
        <path
           sodipodi:nodetypes="cccccccccccc"
           inkscape:connector-curvature="0"
           id="rect3882-4"
           d="m 204.72742,782.83801 16.85401,16.09662 c 8.88547,10.6481 10.70025,10.25897 9.25106,23.26237 l -0.0205,88.66574 0,111.83396 c -0.14554,8.5561 -0.46143,7.9882 -10.51289,7.9882 l -147.18042,0 c -11.06272,-0.4045 -10.150316,-0.2494 -10.512891,-7.9882 0,-79.88141 0,-159.76278 0,-239.64417 0.508129,-8.19345 0.0989,-8.3507 10.512891,-7.98814 l 107.5816,0 c 15.65537,-0.15902 15.59242,0.29133 24.02709,7.77362 z"
           style="fill:url(#linearGradient3098);fill-opacity:1;fill-rule:evenodd;stroke:#ffffff;stroke-width:0.24062547;stroke-linejoin:miter;stroke-miterlimit:4;stroke-opacity:1;stroke-dasharray:none;stroke-dashoffset:0" />
      </g>
      <g
         transform="matrix(0.62485166,0,0,0.62485166,106.0125,389.13349)"
         inkscape:label="Layer 1"
         id="layer1-8">
        <g
           id="g4647"
           transform="translate(-2,0)">
          <g
             id="g4641">
            <path
               transform="translate(0,752.362)"
               style="fill:#808080;fill-opacity:1;fill-rule:evenodd;stroke:#000000;stroke-width:0;stroke-linejoin:miter;stroke-miterlimit:4;stroke-opacity:1;stroke-dasharray:none;stroke-dashoffset:0"
               d="m 32.401825,51.598175 c 33.060612,9.228231 67.661195,10.243285 104.372715,0 l 29.82078,0 c 32.56311,8.91116 66.94614,10.54267 104.37271,0 l 0,191.780825 c -34.23857,8.285 -68.91861,9.94799 -104.37271,0 l -29.82078,0 c -34.79091,8.25462 -69.58181,9.97606 -104.372715,0 z"
               id="rect4382"
               inkscape:connector-curvature="0"
               sodipodi:nodetypes="ccccccccc" />
            <path
               style="fill:#ffffff;fill-opacity:1;fill-rule:evenodd;stroke:#000000;stroke-width:0;stroke-linejoin:miter;stroke-miterlimit:4;stroke-opacity:1;stroke-dasharray:none;stroke-dashoffset:0"
               d="m 36.296809,810.65862 c 31.947038,8.70526 65.382161,9.66279 100.857151,0 l 28.81633,0 c 31.4663,8.40616 64.69122,9.9452 100.85714,0 l 0,180.91242 c -33.08531,7.8154 -66.59723,9.38416 -100.85714,0 l -28.81633,0 c -33.61906,7.7868 -67.238101,9.41076 -100.857151,0 z"
               id="rect4382-7"
               inkscape:connector-curvature="0"
               sodipodi:nodetypes="ccccccccc" />
            <path
               style="fill:#ffffff;fill-opacity:1;fill-rule:evenodd;stroke:#000000;stroke-width:0.30000001;stroke-linejoin:miter;stroke-miterlimit:4;stroke-opacity:1;stroke-dasharray:none;stroke-dashoffset:0"
               d="m 42.503384,993.78671 0,-176.89668 c 35.651504,11.46774 75.642896,11.00452 109.672276,-6 26.63832,20.44894 72.6364,16.46772 109.67226,6 l 0,176.89668 c -33.40362,7.64179 -82.21099,7.34929 -109.67226,-1.82648 -36.16461,12.90967 -77.392717,11.19027 -109.672276,1.82648 z"
               id="rect4382-7-2"
               inkscape:connector-curvature="0"
               sodipodi:nodetypes="ccccccc" />
            <path
               style="fill:none;stroke:#000000;stroke-width:0.30000001;stroke-linecap:butt;stroke-linejoin:miter;stroke-miterlimit:4;stroke-opacity:1;stroke-dasharray:none"
               d="m 152.05479,58.840183 -0.2831,181.059367"
               id="path4439"
               inkscape:path-effect="#path-effect4441"
               inkscape:original-d="m 152.05479,58.840183 -0.2831,181.059367"
               inkscape:connector-curvature="0"
               transform="translate(0,752.362)"
               sodipodi:nodetypes="cc" />
          </g>
          <g
             id="g4593">
            <g
               id="g4575">
              <path
                 sodipodi:nodetypes="ccccc"
                 inkscape:connector-curvature="0"
                 id="rect4443"
                 d="m 57.077625,84.018265 c 24.214372,6.103813 50.069695,4.823356 76.712325,0 l 0,42.922375 c -24.93736,5.70074 -50.557727,5.25441 -76.712325,0 z"
                 style="fill:#ffff00;fill-opacity:1;fill-rule:evenodd;stroke:#000000;stroke-width:0.30000001;stroke-linejoin:miter;stroke-miterlimit:4;stroke-opacity:1;stroke-dashoffset:0"
                 transform="translate(0,752.362)" />
              <path
                 sodipodi:nodetypes="csssssssssssssssssssssssssssssssc"
                 transform="translate(0,752.362)"
                 inkscape:connector-curvature="0"
                 id="path4468"
                 d="m 57.534247,151.59817 c 0.752135,0.11513 1.504964,-5.77225 2.25852,-5.66223 0.753556,0.11003 1.507838,6.21745 2.262876,6.32216 0.755037,0.10471 1.510832,-5.79328 2.267414,-5.69409 0.756582,0.0992 1.513951,6.19558 2.272137,6.28906 0.758187,0.0935 1.51719,-5.81596 2.277042,-5.72841 0.759852,0.0875 1.520552,6.17209 2.28213,6.25351 0.761578,0.0814 1.524036,-5.84028 2.287403,-5.7652 0.763366,0.0751 1.527643,6.14693 2.292858,6.21547 0.765216,0.0685 1.531372,-5.86625 2.298498,-5.80446 0.767126,0.0618 1.535222,6.12014 2.304319,6.17498 0.769097,0.0548 1.539195,-5.89386 2.310325,-5.8462 0.77113,0.0477 1.543292,6.0917 2.316515,6.13201 0.773223,0.0403 1.547509,-5.9231 2.322887,-5.8904 0.775378,0.0327 1.551849,6.0616 2.329443,6.0866 0.777594,0.025 1.556311,-5.954 2.336182,-5.9371 0.779871,0.017 1.560896,6.0299 2.343105,6.0387 0.782209,0.009 1.565603,-5.9866 2.350211,-5.9862 0.784609,3.6e-4 1.570432,5.996 2.357501,5.9882 0.787068,-0.008 1.575387,-6.0208 2.364977,-6.0378 0.78959,-0.017 1.58046,5.9615 2.37263,5.9355 0.79217,-0.026 1.58565,-6.0566 2.38046,-6.0919 0.79482,-0.0353 1.59098,5.9248 2.3885,5.88014 0.79752,-0.0447 1.59641,-6.0941 2.39669,-6.14844 0.80029,-0.0543 1.60198,5.88651 2.40509,5.82237 0.80312,-0.0642 1.60766,-6.13326 2.41366,-6.20745 0.80601,-0.0742 1.61347,5.84654 2.42242,5.76211 0.80895,-0.0844 1.6194,-6.17405 2.43136,-6.26893 0.81196,-0.0949 1.62545,5.80494 2.44048,5.69939 0.81503,-0.10555 1.63162,-6.21648 2.44979,-6.33289 0.81817,-0.11641 1.63792,5.7617 2.45928,5.63422 0.82136,-0.12748 1.64433,-6.26055 2.46895,-6.39931 0.82462,-0.13876 1.65087,5.71679 2.47881,5.56655"
                 style="fill:none;stroke:#000000;stroke-width:1px;stroke-linecap:butt;stroke-linejoin:miter;stroke-opacity:1" />
              <path
                 sodipodi:nodetypes="csssssssssssssssssssssssssssssssc"
                 inkscape:connector-curvature="0"
                 id="path4468-3"
                 d="m 57.954339,918.91574 c 0.752135,0.11513 1.504964,-5.77225 2.25852,-5.66223 0.753556,0.11003 1.507838,6.21745 2.262876,6.32216 0.755037,0.10471 1.510832,-5.79328 2.267414,-5.69409 0.756582,0.0992 1.513951,6.19558 2.272137,6.28906 0.758187,0.0935 1.51719,-5.81596 2.277042,-5.72841 0.759852,0.0875 1.520552,6.17209 2.28213,6.25351 0.761578,0.0814 1.524036,-5.84028 2.287403,-5.7652 0.763366,0.0751 1.527643,6.14693 2.292858,6.21547 0.765216,0.0685 1.531372,-5.86625 2.298498,-5.80446 0.767126,0.0618 1.535222,6.12014 2.304319,6.17498 0.769097,0.0548 1.539195,-5.89386 2.310325,-5.8462 0.77113,0.0477 1.543292,6.0917 2.316515,6.13201 0.773223,0.0403 1.547509,-5.9231 2.322887,-5.8904 0.775378,0.0327 1.551849,6.0616 2.329443,6.0866 0.777594,0.025 1.556311,-5.954 2.336182,-5.9371 0.779871,0.017 1.560896,6.0299 2.343105,6.0387 0.782209,0.009 1.565603,-5.9866 2.350211,-5.9862 0.784609,3.6e-4 1.570432,5.996 2.357501,5.9882 0.787065,-0.008 1.575385,-6.0208 2.364975,-6.0378 0.78959,-0.017 1.58046,5.9615 2.37263,5.9355 0.79217,-0.026 1.58565,-6.0566 2.38046,-6.0919 0.79482,-0.0353 1.59098,5.9248 2.3885,5.88014 0.79752,-0.0447 1.59641,-6.0941 2.39669,-6.14844 0.80029,-0.0543 1.60198,5.88651 2.40509,5.82237 0.80312,-0.0642 1.60766,-6.13326 2.41366,-6.20745 0.80601,-0.0742 1.61347,5.84654 2.42242,5.76211 0.80895,-0.0844 1.6194,-6.17405 2.43136,-6.26893 0.81196,-0.0949 1.62545,5.80494 2.44048,5.69939 0.81503,-0.10555 1.63162,-6.21648 2.44979,-6.33289 0.81817,-0.11641 1.63792,5.7617 2.45928,5.63422 0.82136,-0.12748 1.64433,-6.26055 2.46895,-6.39931 0.82462,-0.13876 1.65087,5.71679 2.47881,5.56655"
                 style="fill:none;stroke:#000000;stroke-width:1px;stroke-linecap:butt;stroke-linejoin:miter;stroke-opacity:1" />
              <path
                 sodipodi:nodetypes="csssssssssssssssssssssssssssssssc"
                 inkscape:connector-curvature="0"
                 id="path4468-7"
                 d="m 58.41096,933.37236 c 0.752135,0.11513 1.504964,-5.77225 2.25852,-5.66223 0.753556,0.11003 1.507838,6.21745 2.262876,6.32216 0.755037,0.10471 1.510832,-5.79328 2.267414,-5.69409 0.756582,0.0992 1.513951,6.19558 2.272137,6.28906 0.758187,0.0935 1.51719,-5.81596 2.277042,-5.72841 0.759852,0.0875 1.520552,6.17209 2.28213,6.25351 0.761578,0.0814 1.524036,-5.84028 2.287403,-5.7652 0.763366,0.0751 1.527643,6.14693 2.292858,6.21547 0.765216,0.0685 1.531372,-5.86625 2.298498,-5.80446 0.767126,0.0618 1.535222,6.12014 2.304319,6.17498 0.769097,0.0548 1.539195,-5.89386 2.310325,-5.8462 0.77113,0.0477 1.543292,6.0917 2.316515,6.13201 0.773223,0.0403 1.547509,-5.9231 2.322887,-5.8904 0.775378,0.0327 1.551849,6.0616 2.329443,6.0866 0.777594,0.025 1.556311,-5.954 2.336182,-5.9371 0.779871,0.017 1.560896,6.0299 2.343105,6.0387 0.782209,0.009 1.565603,-5.9866 2.350211,-5.9862 0.784609,3.6e-4 1.570432,5.996 2.357501,5.9882 0.787064,-0.008 1.575384,-6.0208 2.364974,-6.0378 0.78959,-0.017 1.58046,5.9615 2.37263,5.9355 0.79217,-0.026 1.58565,-6.0566 2.38046,-6.0919 0.79482,-0.0353 1.59098,5.9248 2.3885,5.88014 0.79752,-0.0447 1.59641,-6.0941 2.39669,-6.14844 0.80029,-0.0543 1.60198,5.88651 2.40509,5.82237 0.80312,-0.0642 1.60766,-6.13326 2.41366,-6.20745 0.80601,-0.0742 1.61347,5.84654 2.42242,5.76211 0.80895,-0.0844 1.6194,-6.17405 2.43136,-6.26893 0.81196,-0.0949 1.62545,5.80494 2.44048,5.69939 0.81503,-0.10555 1.63162,-6.21648 2.44979,-6.33289 0.81817,-0.11641 1.63792,5.7617 2.45928,5.63422 0.82136,-0.12748 1.64433,-6.26055 2.46895,-6.39931 0.82462,-0.13876 1.65087,5.71679 2.47881,5.56655"
                 style="fill:none;stroke:#000000;stroke-width:1px;stroke-linecap:butt;stroke-linejoin:miter;stroke-opacity:1" />
              <path
                 sodipodi:nodetypes="csssssssssssssssssssssssssssssssc"
                 inkscape:connector-curvature="0"
                 id="path4468-4"
                 d="m 57.780823,946.91574 c 0.752135,0.11513 1.504964,-5.77225 2.25852,-5.66223 0.753556,0.11003 1.507838,6.21745 2.262876,6.32216 0.755037,0.10471 1.510832,-5.79328 2.267414,-5.69409 0.756582,0.0992 1.513951,6.19558 2.272137,6.28906 0.758187,0.0935 1.51719,-5.81596 2.277042,-5.72841 0.759852,0.0875 1.520552,6.17209 2.28213,6.25351 0.761578,0.0814 1.524036,-5.84028 2.287403,-5.7652 0.763366,0.0751 1.527643,6.14693 2.292858,6.21547 0.765216,0.0685 1.531372,-5.86625 2.298498,-5.80446 0.767126,0.0618 1.535222,6.12014 2.304319,6.17498 0.769097,0.0548 1.539195,-5.89386 2.310325,-5.8462 0.77113,0.0477 1.543292,6.0917 2.316515,6.13201 0.773223,0.0403 1.547509,-5.9231 2.322887,-5.8904 0.775378,0.0327 1.551849,6.0616 2.329443,6.0866 0.777594,0.025 1.556311,-5.954 2.336182,-5.9371 0.779871,0.017 1.560896,6.0299 2.343105,6.0387 0.782209,0.009 1.565603,-5.9866 2.350211,-5.9862 0.784609,3.6e-4 1.570433,5.996 2.357503,5.9882 0.787069,-0.008 1.575379,-6.0208 2.364969,-6.0378 0.78959,-0.017 1.58046,5.9615 2.37263,5.9355 0.79217,-0.026 1.58565,-6.0566 2.38046,-6.0919 0.79482,-0.0353 1.59098,5.9248 2.3885,5.88014 0.79752,-0.0447 1.59641,-6.0941 2.39669,-6.14844 0.80029,-0.0543 1.60198,5.88651 2.40509,5.82237 0.80312,-0.0642 1.60766,-6.13326 2.41366,-6.20745 0.80602,-0.0742 1.61348,5.84654 2.42243,5.76211 0.80895,-0.0844 1.6194,-6.17405 2.43136,-6.26893 0.81196,-0.0949 1.62545,5.80494 2.44048,5.69939 0.81503,-0.10555 1.63162,-6.21648 2.44979,-6.33289 0.81817,-0.11641 1.63792,5.7617 2.45928,5.63422 0.82136,-0.12748 1.64433,-6.26055 2.46895,-6.39931 0.82462,-0.13876 1.65087,5.71679 2.47881,5.56655"
                 style="fill:none;stroke:#000000;stroke-width:1px;stroke-linecap:butt;stroke-linejoin:miter;stroke-opacity:1" />
              <path
                 sodipodi:nodetypes="csssssssssssssssssssssssssssssssc"
                 inkscape:connector-curvature="0"
                 id="path4468-4-5"
                 d="m 57.150684,961.08926 c 0.752135,0.11513 1.504964,-5.77225 2.25852,-5.66223 0.753556,0.11003 1.507838,6.21745 2.262876,6.32216 0.755037,0.10471 1.510832,-5.79328 2.267414,-5.69409 0.756582,0.0992 1.513951,6.19558 2.272137,6.28906 0.758187,0.0935 1.51719,-5.81596 2.277042,-5.72841 0.759852,0.0875 1.520552,6.17209 2.28213,6.25351 0.761578,0.0814 1.524036,-5.84028 2.287403,-5.7652 0.763366,0.0751 1.527643,6.14693 2.292858,6.21547 0.765216,0.0685 1.531372,-5.86625 2.298498,-5.80446 0.767126,0.0618 1.535222,6.12014 2.304319,6.17498 0.769097,0.0548 1.539195,-5.89386 2.310325,-5.8462 0.77113,0.0477 1.543292,6.0917 2.316515,6.13201 0.773223,0.0403 1.547509,-5.9231 2.322887,-5.8904 0.775378,0.0327 1.551849,6.0616 2.329443,6.0866 0.777594,0.025 1.556311,-5.954 2.336182,-5.9371 0.779871,0.017 1.560896,6.0299 2.343105,6.0387 0.782209,0.009 1.565603,-5.9866 2.350211,-5.9862 0.784609,3.6e-4 1.570433,5.996 2.357503,5.9882 0.787069,-0.008 1.575378,-6.0208 2.364968,-6.0378 0.78959,-0.017 1.58046,5.9615 2.37263,5.9355 0.79217,-0.026 1.58565,-6.0566 2.38046,-6.0919 0.79482,-0.0353 1.59098,5.9248 2.3885,5.88014 0.79752,-0.0447 1.59641,-6.0941 2.39669,-6.14844 0.80029,-0.0543 1.60198,5.88651 2.40509,5.82237 0.80312,-0.0642 1.60766,-6.13326 2.41366,-6.20745 0.80602,-0.0742 1.61348,5.84654 2.42243,5.76211 0.80895,-0.0844 1.6194,-6.17405 2.43136,-6.26893 0.81196,-0.0949 1.62545,5.80494 2.44048,5.69939 0.81503,-0.10555 1.63162,-6.21648 2.44979,-6.33289 0.81817,-0.11641 1.63792,5.7617 2.45928,5.63422 0.82136,-0.12748 1.64433,-6.26055 2.46895,-6.39931 0.82462,-0.13876 1.65087,5.71679 2.47881,5.56655"
                 style="fill:none;stroke:#000000;stroke-width:1px;stroke-linecap:butt;stroke-linejoin:miter;stroke-opacity:1" />
              <path
                 sodipodi:nodetypes="csssssssssssssssssssssssssssssssc"
                 inkscape:connector-curvature="0"
                 id="path4468-4-1"
                 d="m 56.977168,974.80615 c 0.752135,0.11513 1.504964,-5.77225 2.25852,-5.66223 0.753556,0.11003 1.507838,6.21745 2.262876,6.32216 0.755037,0.10471 1.510832,-5.79328 2.267414,-5.69409 0.756582,0.0992 1.513951,6.19558 2.272137,6.28906 0.758187,0.0935 1.51719,-5.81596 2.277042,-5.72841 0.759852,0.0875 1.520552,6.17209 2.28213,6.25351 0.761578,0.0814 1.524036,-5.84028 2.287403,-5.7652 0.763366,0.0751 1.527643,6.14693 2.292858,6.21547 0.765216,0.0685 1.531372,-5.86625 2.298498,-5.80446 0.767126,0.0618 1.535222,6.12014 2.304319,6.17498 0.769097,0.0548 1.539195,-5.89386 2.310325,-5.8462 0.77113,0.0477 1.543292,6.0917 2.316515,6.13201 0.773223,0.0403 1.547509,-5.9231 2.322887,-5.8904 0.775378,0.0327 1.551849,6.0616 2.329443,6.0866 0.777594,0.025 1.556311,-5.954 2.336182,-5.9371 0.779871,0.017 1.560896,6.0299 2.343105,6.0387 0.782209,0.009 1.565603,-5.9866 2.350211,-5.9862 0.784609,3.6e-4 1.570433,5.996 2.357503,5.9882 0.787069,-0.008 1.575374,-6.0208 2.364964,-6.0378 0.78959,-0.017 1.58046,5.9615 2.37263,5.9355 0.79217,-0.026 1.58565,-6.0566 2.38046,-6.0919 0.79482,-0.0353 1.59098,5.9248 2.3885,5.88014 0.79752,-0.0447 1.59641,-6.0941 2.39669,-6.14844 0.80029,-0.0543 1.60198,5.88651 2.4051,5.82237 0.80312,-0.0642 1.60766,-6.13326 2.41366,-6.20745 0.80602,-0.0742 1.61348,5.84654 2.42243,5.76211 0.80895,-0.0844 1.6194,-6.17405 2.43136,-6.26893 0.81196,-0.0949 1.62545,5.80494 2.44048,5.69939 0.81503,-0.10555 1.63162,-6.21648 2.44979,-6.33289 0.81817,-0.11641 1.63792,5.7617 2.45928,5.63422 0.82136,-0.12748 1.64433,-6.26055 2.46895,-6.39931 0.82462,-0.13876 1.65087,5.71679 2.47881,5.56655"
                 style="fill:none;stroke:#000000;stroke-width:1px;stroke-linecap:butt;stroke-linejoin:miter;stroke-opacity:1" />
            </g>
            <g
               id="g4584">
              <path
                 sodipodi:nodetypes="ccccc"
                 inkscape:connector-curvature="0"
                 id="rect4443-5"
                 d="m 170.77626,933.86869 c 24.21437,6.10381 50.06969,4.82336 76.71232,0 l 0,42.92238 c -24.93736,5.70074 -50.55772,5.25441 -76.71232,0 z"
                 style="fill:#ffff00;fill-opacity:1;fill-rule:evenodd;stroke:#000000;stroke-width:0.30000001;stroke-linejoin:miter;stroke-miterlimit:4;stroke-opacity:1;stroke-dashoffset:0" />
              <path
                 sodipodi:nodetypes="csssssssssssssssssssssssssssssssc"
                 inkscape:connector-curvature="0"
                 id="path4468-3-6"
                 d="m 170.89042,846.14862 c 0.75213,0.11513 1.50496,-5.77225 2.25852,-5.66223 0.75355,0.11003 1.50783,6.21745 2.26287,6.32216 0.75504,0.10471 1.51083,-5.79328 2.26742,-5.69409 0.75658,0.0992 1.51395,6.19558 2.27213,6.28906 0.75819,0.0935 1.51719,-5.81596 2.27704,-5.72841 0.75986,0.0875 1.52056,6.17209 2.28213,6.25351 0.76158,0.0814 1.52404,-5.84028 2.28741,-5.7652 0.76336,0.0751 1.52764,6.14693 2.29286,6.21547 0.76521,0.0685 1.53137,-5.86625 2.29849,-5.80446 0.76713,0.0618 1.53523,6.12014 2.30432,6.17498 0.7691,0.0548 1.5392,-5.89386 2.31033,-5.8462 0.77113,0.0477 1.54329,6.0917 2.31651,6.13201 0.77323,0.0403 1.54751,-5.9231 2.32289,-5.8904 0.77538,0.0327 1.55185,6.0616 2.32944,6.0866 0.7776,0.025 1.55631,-5.954 2.33618,-5.9371 0.77987,0.017 1.5609,6.0299 2.34311,6.0387 0.78221,0.009 1.5656,-5.9866 2.35021,-5.9862 0.78461,3.6e-4 1.57043,5.996 2.3575,5.9882 0.78707,-0.008 1.57539,-6.0208 2.36498,-6.0378 0.78959,-0.017 1.58046,5.9615 2.37263,5.9355 0.79217,-0.026 1.58565,-6.0566 2.38046,-6.0919 0.79482,-0.0353 1.59098,5.9248 2.3885,5.88014 0.79752,-0.0447 1.59641,-6.0941 2.39669,-6.14844 0.80029,-0.0543 1.60198,5.88651 2.40509,5.82237 0.80312,-0.0642 1.60766,-6.13326 2.41366,-6.20745 0.80601,-0.0742 1.61347,5.84654 2.42242,5.76211 0.80895,-0.0844 1.6194,-6.17405 2.43136,-6.26893 0.81196,-0.0949 1.62545,5.80494 2.44048,5.69939 0.81503,-0.10555 1.63162,-6.21648 2.44979,-6.33289 0.81817,-0.11641 1.63792,5.7617 2.45928,5.63422 0.82136,-0.12748 1.64433,-6.26055 2.46895,-6.39931 0.82462,-0.13876 1.65087,5.71679 2.47881,5.56655"
                 style="fill:none;stroke:#000000;stroke-width:1px;stroke-linecap:butt;stroke-linejoin:miter;stroke-opacity:1" />
              <path
                 sodipodi:nodetypes="csssssssssssssssssssssssssssssssc"
                 inkscape:connector-curvature="0"
                 id="path4468-7-4"
                 d="m 171.34704,860.60524 c 0.75213,0.11513 1.50496,-5.77225 2.25852,-5.66223 0.75355,0.11003 1.50783,6.21745 2.26287,6.32216 0.75504,0.10471 1.51083,-5.79328 2.26742,-5.69409 0.75658,0.0992 1.51395,6.19558 2.27213,6.28906 0.75819,0.0935 1.51719,-5.81596 2.27705,-5.72841 0.75985,0.0875 1.52055,6.17209 2.28213,6.25351 0.76157,0.0814 1.52403,-5.84028 2.2874,-5.7652 0.76336,0.0751 1.52764,6.14693 2.29286,6.21547 0.76521,0.0685 1.53137,-5.86625 2.29849,-5.80446 0.76713,0.0618 1.53523,6.12014 2.30432,6.17498 0.7691,0.0548 1.5392,-5.89386 2.31033,-5.8462 0.77113,0.0477 1.54329,6.0917 2.31651,6.13201 0.77323,0.0403 1.54751,-5.9231 2.32289,-5.8904 0.77538,0.0327 1.55185,6.0616 2.32944,6.0866 0.7776,0.025 1.55631,-5.954 2.33618,-5.9371 0.77988,0.017 1.5609,6.0299 2.34311,6.0387 0.78221,0.009 1.5656,-5.9866 2.35021,-5.9862 0.78461,3.6e-4 1.57043,5.996 2.3575,5.9882 0.78707,-0.008 1.57539,-6.0208 2.36498,-6.0378 0.78959,-0.017 1.58046,5.9615 2.37263,5.9355 0.79217,-0.026 1.58565,-6.0566 2.38046,-6.0919 0.79482,-0.0353 1.59098,5.9248 2.3885,5.88014 0.79752,-0.0447 1.59641,-6.0941 2.39669,-6.14844 0.80029,-0.0543 1.60198,5.88651 2.40509,5.82237 0.80312,-0.0642 1.60766,-6.13326 2.41366,-6.20745 0.80601,-0.0742 1.61347,5.84654 2.42242,5.76211 0.80895,-0.0844 1.6194,-6.17405 2.43136,-6.26893 0.81196,-0.0949 1.62545,5.80494 2.44048,5.69939 0.81503,-0.10555 1.63162,-6.21648 2.44979,-6.33289 0.81817,-0.11641 1.63792,5.7617 2.45928,5.63422 0.82136,-0.12748 1.64433,-6.26055 2.46895,-6.39931 0.82462,-0.13876 1.65087,5.71679 2.47881,5.56655"
                 style="fill:none;stroke:#000000;stroke-width:1px;stroke-linecap:butt;stroke-linejoin:miter;stroke-opacity:1" />
              <path
                 sodipodi:nodetypes="csssssssssssssssssssssssssssssssc"
                 inkscape:connector-curvature="0"
                 id="path4468-4-6"
                 d="m 170.7169,874.14862 c 0.75213,0.11513 1.50496,-5.77225 2.25852,-5.66223 0.75356,0.11003 1.50784,6.21745 2.26288,6.32216 0.75503,0.10471 1.51083,-5.79328 2.26741,-5.69409 0.75658,0.0992 1.51395,6.19558 2.27214,6.28906 0.75818,0.0935 1.51719,-5.81596 2.27704,-5.72841 0.75985,0.0875 1.52055,6.17209 2.28213,6.25351 0.76158,0.0814 1.52403,-5.84028 2.2874,-5.7652 0.76337,0.0751 1.52764,6.14693 2.29286,6.21547 0.76521,0.0685 1.53137,-5.86625 2.2985,-5.80446 0.76712,0.0618 1.53522,6.12014 2.30432,6.17498 0.76909,0.0548 1.53919,-5.89386 2.31032,-5.8462 0.77113,0.0477 1.54329,6.0917 2.31652,6.13201 0.77322,0.0403 1.54751,-5.9231 2.32288,-5.8904 0.77538,0.0327 1.55185,6.0616 2.32945,6.0866 0.77759,0.025 1.55631,-5.954 2.33618,-5.9371 0.77987,0.017 1.56089,6.0299 2.3431,6.0387 0.78221,0.009 1.56561,-5.9866 2.35021,-5.9862 0.78461,3.6e-4 1.57044,5.996 2.35751,5.9882 0.78707,-0.008 1.57538,-6.0208 2.36497,-6.0378 0.78959,-0.017 1.58046,5.9615 2.37263,5.9355 0.79217,-0.026 1.58565,-6.0566 2.38046,-6.0919 0.79482,-0.0353 1.59098,5.9248 2.3885,5.88014 0.79752,-0.0447 1.59641,-6.0941 2.39669,-6.14844 0.80029,-0.0543 1.60198,5.88651 2.40509,5.82237 0.80312,-0.0642 1.60766,-6.13326 2.41366,-6.20745 0.80602,-0.0742 1.61348,5.84654 2.42243,5.76211 0.80895,-0.0844 1.6194,-6.17405 2.43136,-6.26893 0.81196,-0.0949 1.62545,5.80494 2.44048,5.69939 0.81503,-0.10555 1.63162,-6.21648 2.44979,-6.33289 0.81817,-0.11641 1.63792,5.7617 2.45928,5.63422 0.82136,-0.12748 1.64433,-6.26055 2.46895,-6.39931 0.82462,-0.13876 1.65087,5.71679 2.47881,5.56655"
                 style="fill:none;stroke:#000000;stroke-width:1px;stroke-linecap:butt;stroke-linejoin:miter;stroke-opacity:1" />
              <path
                 sodipodi:nodetypes="csssssssssssssssssssssssssssssssc"
                 inkscape:connector-curvature="0"
                 id="path4468-4-5-3"
                 d="m 170.08676,888.32214 c 0.75213,0.11513 1.50496,-5.77225 2.25852,-5.66223 0.75356,0.11003 1.50784,6.21745 2.26288,6.32216 0.75503,0.10471 1.51083,-5.79328 2.26741,-5.69409 0.75658,0.0992 1.51395,6.19558 2.27214,6.28906 0.75818,0.0935 1.51719,-5.81596 2.27704,-5.72841 0.75985,0.0875 1.52055,6.17209 2.28213,6.25351 0.76158,0.0814 1.52403,-5.84028 2.2874,-5.7652 0.76337,0.0751 1.52764,6.14693 2.29286,6.21547 0.76522,0.0685 1.53137,-5.86625 2.2985,-5.80446 0.76712,0.0618 1.53522,6.12014 2.30432,6.17498 0.76909,0.0548 1.53919,-5.89386 2.31032,-5.8462 0.77113,0.0477 1.54329,6.0917 2.31652,6.13201 0.77322,0.0403 1.54751,-5.9231 2.32288,-5.8904 0.77538,0.0327 1.55185,6.0616 2.32945,6.0866 0.77759,0.025 1.55631,-5.954 2.33618,-5.9371 0.77987,0.017 1.56089,6.0299 2.3431,6.0387 0.78221,0.009 1.56561,-5.9866 2.35021,-5.9862 0.78461,3.6e-4 1.57044,5.996 2.35751,5.9882 0.78707,-0.008 1.57538,-6.0208 2.36497,-6.0378 0.78959,-0.017 1.58046,5.9615 2.37263,5.9355 0.79217,-0.026 1.58565,-6.0566 2.38046,-6.0919 0.79482,-0.0353 1.59098,5.9248 2.3885,5.88014 0.79752,-0.0447 1.59641,-6.0941 2.39669,-6.14844 0.80029,-0.0543 1.60198,5.88651 2.40509,5.82237 0.80312,-0.0642 1.60766,-6.13326 2.41366,-6.20745 0.80602,-0.0742 1.61348,5.84654 2.42243,5.76211 0.80895,-0.0844 1.6194,-6.17405 2.43136,-6.26893 0.81196,-0.0949 1.62545,5.80494 2.44048,5.69939 0.81503,-0.10555 1.63162,-6.21648 2.44979,-6.33289 0.81817,-0.11641 1.63792,5.7617 2.45928,5.63422 0.82136,-0.12748 1.64433,-6.26055 2.46895,-6.39931 0.82462,-0.13876 1.65087,5.71679 2.47881,5.56655"
                 style="fill:none;stroke:#000000;stroke-width:1px;stroke-linecap:butt;stroke-linejoin:miter;stroke-opacity:1" />
              <path
                 sodipodi:nodetypes="csssssssssssssssssssssssssssssssc"
                 inkscape:connector-curvature="0"
                 id="path4468-4-1-4"
                 d="m 169.91324,902.03903 c 0.75214,0.11513 1.50497,-5.77225 2.25852,-5.66223 0.75356,0.11003 1.50784,6.21745 2.26288,6.32216 0.75504,0.10471 1.51083,-5.79328 2.26741,-5.69409 0.75659,0.0992 1.51396,6.19558 2.27214,6.28906 0.75819,0.0935 1.51719,-5.81596 2.27704,-5.72841 0.75986,0.0875 1.52056,6.17209 2.28213,6.25351 0.76158,0.0814 1.52404,-5.84028 2.28741,-5.7652 0.76336,0.0751 1.52764,6.14693 2.29285,6.21547 0.76522,0.0685 1.53138,-5.86625 2.2985,-5.80446 0.76713,0.0618 1.53522,6.12014 2.30432,6.17498 0.7691,0.0548 1.5392,-5.89386 2.31033,-5.8462 0.77113,0.0477 1.54329,6.0917 2.31651,6.13201 0.77322,0.0403 1.54751,-5.9231 2.32289,-5.8904 0.77538,0.0327 1.55185,6.0616 2.32944,6.0866 0.77759,0.025 1.55631,-5.954 2.33618,-5.9371 0.77987,0.017 1.5609,6.0299 2.34311,6.0387 0.78221,0.009 1.5656,-5.9866 2.35021,-5.9862 0.78461,3.6e-4 1.57043,5.996 2.3575,5.9882 0.78707,-0.008 1.57538,-6.0208 2.36497,-6.0378 0.78959,-0.017 1.58046,5.9615 2.37263,5.9355 0.79217,-0.026 1.58565,-6.0566 2.38046,-6.0919 0.79482,-0.0353 1.59098,5.9248 2.3885,5.88014 0.79752,-0.0447 1.59641,-6.0941 2.39669,-6.14844 0.80029,-0.0543 1.60198,5.88651 2.4051,5.82237 0.80312,-0.0642 1.60766,-6.13326 2.41366,-6.20745 0.80602,-0.0742 1.61348,5.84654 2.42243,5.76211 0.80895,-0.0844 1.6194,-6.17405 2.43136,-6.26893 0.81196,-0.0949 1.62545,5.80494 2.44048,5.69939 0.81503,-0.10555 1.63162,-6.21648 2.44979,-6.33289 0.81817,-0.11641 1.63792,5.7617 2.45928,5.63422 0.82136,-0.12748 1.64433,-6.26055 2.46895,-6.39931 0.82462,-0.13876 1.65087,5.71679 2.47881,5.56655"
                 style="fill:none;stroke:#000000;stroke-width:1px;stroke-linecap:butt;stroke-linejoin:miter;stroke-opacity:1" />
              <path
                 sodipodi:nodetypes="csssssssssssssssssssssssssssssssc"
                 inkscape:connector-curvature="0"
                 id="path4468-31"
                 d="m 170.54795,917.98423 c 0.75213,0.11513 1.50496,-5.77225 2.25852,-5.66223 0.75355,0.11003 1.50783,6.21745 2.26287,6.32216 0.75504,0.10471 1.51083,-5.79328 2.26742,-5.69409 0.75658,0.0992 1.51395,6.19558 2.27213,6.28906 0.75819,0.0935 1.51719,-5.81596 2.27705,-5.72841 0.75985,0.0875 1.52055,6.17209 2.28213,6.25351 0.76157,0.0814 1.52403,-5.84028 2.2874,-5.7652 0.76336,0.0751 1.52764,6.14693 2.29286,6.21547 0.76521,0.0685 1.53137,-5.86625 2.29849,-5.80446 0.76713,0.0618 1.53523,6.12014 2.30432,6.17498 0.7691,0.0548 1.5392,-5.89386 2.31033,-5.8462 0.77113,0.0477 1.54329,6.0917 2.31651,6.13201 0.77323,0.0403 1.54751,-5.9231 2.32289,-5.8904 0.77538,0.0327 1.55185,6.0616 2.32944,6.0866 0.7776,0.025 1.55631,-5.954 2.33619,-5.9371 0.77987,0.017 1.56089,6.0299 2.3431,6.0387 0.78221,0.009 1.5656,-5.9866 2.35021,-5.9862 0.78461,3.6e-4 1.57043,5.996 2.3575,5.9882 0.78707,-0.008 1.57539,-6.0208 2.36498,-6.0378 0.78959,-0.017 1.58046,5.9615 2.37263,5.9355 0.79217,-0.026 1.58565,-6.0566 2.38046,-6.0919 0.79482,-0.0353 1.59098,5.9248 2.3885,5.88014 0.79752,-0.0447 1.59641,-6.0941 2.39669,-6.14844 0.80029,-0.0543 1.60198,5.88651 2.40509,5.82237 0.80312,-0.0642 1.60766,-6.13326 2.41366,-6.20745 0.80601,-0.0742 1.61347,5.84654 2.42242,5.76211 0.80895,-0.0844 1.6194,-6.17405 2.43136,-6.26893 0.81196,-0.0949 1.62545,5.80494 2.44048,5.69939 0.81503,-0.10555 1.63162,-6.21648 2.44979,-6.33289 0.81817,-0.11641 1.63792,5.7617 2.45928,5.63422 0.82136,-0.12748 1.64433,-6.26055 2.46895,-6.39931 0.82462,-0.13876 1.65087,5.71679 2.47881,5.56655"
                 style="fill:none;stroke:#000000;stroke-width:1px;stroke-linecap:butt;stroke-linejoin:miter;stroke-opacity:1" />
            </g>
          </g>
        </g>
      </g>
    </g>
  </g>
</svg>
